<?xml version="1.0" standalone="no"?>
<!DOCTYPE svg PUBLIC "-//W3C//DTD SVG 20010904//EN"
 "http://www.w3.org/TR/2001/REC-SVG-20010904/DTD/svg10.dtd">
<svg version="1.0" xmlns="http://www.w3.org/2000/svg"
 width="316.000000pt" height="316.000000pt" viewBox="0 0 316.000000 316.000000"
 preserveAspectRatio="xMidYMid meet">
<metadata>
Created by potrace 1.14, written by Peter Selinger 2001-2017
</metadata>
<g transform="translate(0.000000,316.000000) scale(0.100000,-0.100000)"
fill="#000000" stroke="none">
<path d="M1252 2672 c-7 -59 -12 -137 -12 -172 0 -65 0 -65 -38 -85 -33 -18
-37 -24 -34 -55 2 -32 -2 -38 -45 -65 -140 -88 -240 -256 -272 -455 -21 -130
-11 -391 19 -500 52 -189 106 -314 171 -396 79 -100 77 -95 49 -113 -38 -24
-70 -62 -70 -81 0 -12 -16 -23 -52 -35 -29 -9 -80 -31 -114 -50 -60 -33 -61
-33 -85 -14 -13 11 -55 29 -93 40 -56 18 -84 21 -155 16 -209 -13 -382 -133
-457 -316 -32 -77 -44 -226 -25 -298 l12 -43 371 0 371 0 -6 118 c-3 64 -9
126 -13 136 -6 16 -4 18 12 12 36 -13 83 -51 93 -74 6 -13 11 -61 11 -107 l0
-85 1120 0 1120 0 0 300 0 299 -45 27 c-118 68 -289 99 -420 75 -77 -14 -208
-79 -264 -131 -24 -22 -45 -40 -46 -40 -1 0 -13 27 -25 60 -12 33 -34 72 -49
86 -34 35 -117 71 -181 80 -42 6 -53 11 -65 35 -22 42 -67 68 -147 85 -40 8
-74 16 -75 18 -2 1 9 18 23 37 56 73 86 162 108 317 2 13 -3 140 -10 282 -17
321 -36 427 -100 558 -69 140 -156 216 -282 243 -37 7 -52 16 -60 35 -9 19
-19 24 -46 24 -38 0 -32 -12 -96 174 -40 115 -65 166 -79 166 -4 0 -12 -49
-19 -108z m90 -90 c47 -125 49 -134 34 -151 -22 -24 -69 -33 -102 -20 l-27 10
7 87 c12 163 19 213 29 209 5 -1 32 -63 59 -135z m-192 -447 c8 -9 10 -28 6
-50 -10 -54 -63 -72 -106 -37 -21 17 -22 20 -7 48 10 19 28 35 49 41 45 15 44
15 58 -2z m-110 -170 c0 -19 -9 -31 -32 -43 -17 -9 -45 -30 -61 -46 -28 -28
-29 -28 -22 -5 23 75 59 119 97 119 13 0 18 -8 18 -25z m524 -6 c19 -15 26
-30 26 -54 0 -75 -47 -120 -123 -120 -42 0 -52 4 -78 33 -23 26 -29 41 -29 80
0 73 9 79 116 81 48 1 67 -3 88 -20z m-339 -34 c38 -37 34 -88 -9 -131 -30
-30 -40 -34 -84 -34 -69 0 -93 21 -99 86 -2 27 0 54 4 61 9 13 103 41 141 42
13 1 34 -10 47 -24z m-226 -265 c25 -10 32 -21 40 -61 6 -28 11 -70 11 -94 0
-56 -18 -59 -65 -12 -38 38 -65 116 -65 190 l0 49 25 -30 c13 -16 38 -35 54
-42z"/>
<path d="M1458 1903 c-6 -24 1 -43 17 -43 18 0 28 30 14 46 -15 19 -26 18 -31
-3z"/>
<path d="M1137 1884 c-4 -4 -7 -18 -7 -31 0 -17 6 -23 21 -23 16 0 20 5 17 27
-3 26 -18 39 -31 27z"/>
</g>
</svg>
